<svg width="1043" height="253" viewBox="0 0 1043 253" fill="none" xmlns="http://www.w3.org/2000/svg">
<rect width="1002" height="253" rx="8" fill="white"/>
<path d="M77.1403 28L81.0597 20.2443V20.1797H76.494V18.5455H83.1278V20.2028L79.2038 28H77.1403Z" fill="#414750"/>
<path d="M94 31H1042" stroke="#D9D9D9" stroke-dasharray="2 2"/>
<path d="M80.3949 58.1293C79.9086 58.1262 79.4393 58.0446 78.9869 57.8846C78.5375 57.7246 78.1344 57.4645 77.7773 57.1044C77.4203 56.7443 77.1372 56.2673 76.9279 55.6733C76.7217 55.0793 76.6186 54.3499 76.6186 53.4851C76.6217 52.6911 76.7125 51.9817 76.891 51.3569C77.0726 50.729 77.3311 50.1966 77.6665 49.7596C78.0051 49.3226 78.4098 48.9902 78.8807 48.7624C79.3516 48.5316 79.8794 48.4162 80.4641 48.4162C81.0951 48.4162 81.6521 48.5393 82.1353 48.7855C82.6185 49.0286 83.0063 49.3595 83.2987 49.7781C83.5941 50.1966 83.7726 50.666 83.8342 51.1861H81.8629C81.786 50.8568 81.6244 50.5982 81.3782 50.4105C81.132 50.2228 80.8273 50.1289 80.4641 50.1289C79.8486 50.1289 79.3808 50.3967 79.0607 50.9322C78.7437 51.4677 78.5821 52.1955 78.576 53.1158H78.6406C78.7822 52.8357 78.973 52.5972 79.2131 52.4002C79.4562 52.2002 79.7317 52.0478 80.0394 51.9432C80.3503 51.8355 80.678 51.7816 81.0227 51.7816C81.5829 51.7816 82.0814 51.9139 82.5185 52.1786C82.9555 52.4402 83.3002 52.8003 83.5526 53.2589C83.8049 53.7174 83.9311 54.2422 83.9311 54.8331C83.9311 55.4732 83.7818 56.0426 83.4833 56.5412C83.1879 57.0398 82.7739 57.4306 82.2415 57.7138C81.7121 57.9938 81.0966 58.1323 80.3949 58.1293ZM80.3857 56.5597C80.6934 56.5597 80.9689 56.4858 81.212 56.3381C81.4551 56.1903 81.646 55.9903 81.7844 55.7379C81.9229 55.4856 81.9922 55.2024 81.9922 54.8885C81.9922 54.5746 81.9229 54.293 81.7844 54.0437C81.649 53.7944 81.4613 53.5959 81.2212 53.4482C80.9812 53.3004 80.7073 53.2266 80.3995 53.2266C80.1687 53.2266 79.9548 53.2696 79.7578 53.3558C79.5639 53.442 79.3931 53.562 79.2454 53.7159C79.1007 53.8698 78.9869 54.0483 78.9038 54.2514C78.8207 54.4515 78.7791 54.6654 78.7791 54.8931C78.7791 55.1978 78.8484 55.4763 78.9869 55.7287C79.1284 55.9811 79.3192 56.1826 79.5593 56.3335C79.8024 56.4843 80.0779 56.5597 80.3857 56.5597Z" fill="#414750"/>
<path d="M95 61H1043" stroke="#D9D9D9" stroke-dasharray="2 2"/>
<path d="M80.2195 88.1293C79.567 88.1293 78.9853 88.0092 78.4744 87.7692C77.9666 87.5291 77.5634 87.1983 77.2649 86.7766C76.9664 86.355 76.811 85.8718 76.7987 85.3271H78.7376C78.7591 85.6933 78.913 85.9903 79.1992 86.218C79.4854 86.4458 79.8255 86.5597 80.2195 86.5597C80.5334 86.5597 80.8104 86.4904 81.0504 86.3519C81.2936 86.2103 81.4828 86.0149 81.6183 85.7656C81.7567 85.5133 81.826 85.224 81.826 84.8977C81.826 84.5653 81.7552 84.273 81.6136 84.0206C81.4751 83.7682 81.2828 83.5713 81.0366 83.4297C80.7904 83.2881 80.5088 83.2158 80.1918 83.2127C79.9148 83.2127 79.6455 83.2696 79.3839 83.3835C79.1254 83.4974 78.9238 83.6528 78.7791 83.8498L77.0018 83.5312L77.4496 78.5455H83.2294V80.1797H79.0977L78.853 82.5479H78.9084C79.0746 82.314 79.3254 82.1201 79.6609 81.9663C79.9963 81.8124 80.3718 81.7354 80.7873 81.7354C81.3567 81.7354 81.8645 81.8693 82.3107 82.1371C82.757 82.4048 83.1094 82.7726 83.3679 83.2404C83.6264 83.7051 83.7541 84.2406 83.7511 84.8469C83.7541 85.484 83.6064 86.0503 83.3079 86.5458C83.0124 87.0382 82.5985 87.426 82.0661 87.7092C81.5367 87.9892 80.9212 88.1293 80.2195 88.1293Z" fill="#414750"/>
<path d="M95 91H1043" stroke="#D9D9D9" stroke-dasharray="2 2"/>
<path d="M76.6232 116.338V114.764L80.5703 108.545H81.9276V110.724H81.1243L78.636 114.662V114.736H84.245V116.338H76.6232ZM81.1612 118V115.858L81.1982 115.161V108.545H83.0724V118H81.1612Z" fill="#414750"/>
<path d="M95 121H1043" stroke="#D9D9D9" stroke-dasharray="2 2"/>
<path d="M80.261 148.129C79.5716 148.129 78.9576 148.011 78.419 147.774C77.8835 147.534 77.4603 147.204 77.1495 146.786C76.8417 146.364 76.6832 145.878 76.674 145.327H78.6868C78.6991 145.558 78.7745 145.761 78.913 145.936C79.0546 146.109 79.2423 146.243 79.4762 146.338C79.7101 146.433 79.9732 146.481 80.2656 146.481C80.5703 146.481 80.8396 146.427 81.0735 146.32C81.3074 146.212 81.4905 146.063 81.6229 145.872C81.7552 145.681 81.8214 145.461 81.8214 145.212C81.8214 144.959 81.7506 144.736 81.609 144.542C81.4705 144.345 81.2705 144.191 81.0089 144.081C80.7504 143.97 80.4426 143.914 80.0856 143.914H79.2038V142.446H80.0856C80.3872 142.446 80.6534 142.394 80.8842 142.289C81.1181 142.185 81.2997 142.04 81.429 141.855C81.5582 141.668 81.6229 141.449 81.6229 141.2C81.6229 140.963 81.5659 140.755 81.4521 140.577C81.3413 140.395 81.1843 140.254 80.9812 140.152C80.7811 140.05 80.5472 140 80.2795 140C80.0086 140 79.7609 140.049 79.5362 140.147C79.3116 140.243 79.1315 140.38 78.9961 140.558C78.8607 140.737 78.7884 140.946 78.7791 141.186H76.8633C76.8725 140.641 77.0279 140.161 77.3295 139.746C77.6312 139.33 78.0374 139.006 78.5483 138.772C79.0623 138.535 79.6424 138.416 80.2887 138.416C80.9412 138.416 81.5121 138.535 82.0014 138.772C82.4908 139.009 82.8709 139.329 83.1417 139.732C83.4156 140.132 83.551 140.581 83.5479 141.08C83.551 141.609 83.3864 142.051 83.054 142.405C82.7247 142.759 82.2953 142.983 81.766 143.079V143.153C82.4615 143.242 82.9909 143.484 83.354 143.877C83.7203 144.268 83.9019 144.758 83.8988 145.346C83.9019 145.884 83.7464 146.363 83.4325 146.781C83.1217 147.2 82.6924 147.529 82.1445 147.769C81.5967 148.009 80.9689 148.129 80.261 148.129Z" fill="#414750"/>
<path d="M95 151H1043" stroke="#D9D9D9" stroke-dasharray="2 2"/>
<path d="M76.7663 178V176.56L80.1317 173.444C80.418 173.167 80.658 172.917 80.8519 172.696C81.0489 172.474 81.1982 172.257 81.2997 172.045C81.4013 171.829 81.4521 171.597 81.4521 171.348C81.4521 171.071 81.389 170.832 81.2628 170.632C81.1366 170.429 80.9643 170.274 80.7457 170.166C80.5272 170.055 80.2795 170 80.0025 170C79.7132 170 79.4608 170.058 79.2454 170.175C79.0299 170.292 78.8638 170.46 78.7468 170.678C78.6299 170.897 78.5714 171.157 78.5714 171.458H76.674C76.674 170.84 76.814 170.303 77.0941 169.847C77.3742 169.392 77.7666 169.039 78.2713 168.79C78.776 168.541 79.3577 168.416 80.0163 168.416C80.6934 168.416 81.2828 168.536 81.7844 168.776C82.2892 169.013 82.6816 169.343 82.9616 169.764C83.2417 170.186 83.3817 170.669 83.3817 171.214C83.3817 171.571 83.311 171.923 83.1694 172.271C83.0309 172.619 82.7831 173.005 82.4261 173.43C82.0691 173.851 81.5659 174.358 80.9165 174.949L79.5362 176.301V176.366H83.5064V178H76.7663Z" fill="#414750"/>
<path d="M95 181H1043" stroke="#D9D9D9" stroke-dasharray="2 2"/>
<path d="M80.8796 198.545V208H78.8807V200.443H78.8253L76.6602 201.8V200.027L79.0007 198.545H80.8796Z" fill="#414750"/>
<path d="M93 211H595" stroke="#D9D9D9" stroke-dasharray="2 2"/>
<rect x="95" y="182" width="33" height="29" fill="#FC4949"/>
<rect x="132" y="114" width="33" height="97" fill="#333AFF"/>
<rect x="169" y="54" width="33" height="157" fill="#33F296"/>
<rect x="210" y="168" width="33" height="43" fill="#FC4949"/>
<rect x="247" y="31" width="33" height="180" fill="#333AFF"/>
<rect x="284" y="54" width="33" height="157" fill="#33F296"/>
<rect x="325" y="138" width="33" height="73" fill="#FC4949"/>
<rect x="362" y="50" width="33" height="161" fill="#333AFF"/>
<rect x="399" y="64" width="33" height="147" fill="#33F296"/>
<rect x="440" y="151" width="33" height="60" fill="#FC4949"/>
<rect x="477" y="83" width="33" height="128" fill="#333AFF"/>
<rect x="514" y="91" width="33" height="120" fill="#33F296"/>
<rect x="555" y="188" width="33" height="23" fill="#FC4949"/>
<rect x="592" y="56" width="33" height="155" fill="#333AFF"/>
<rect x="629" y="71" width="33" height="140" fill="#33F296"/>
<path d="M21.4 234.63C20.49 234.63 19.7187 234.4 19.086 233.941C18.4533 233.482 17.9983 232.823 17.721 231.965L19.463 231.302C19.6537 231.857 19.905 232.264 20.217 232.524C20.5377 232.784 20.932 232.914 21.4 232.914C21.9633 232.914 22.414 232.732 22.752 232.368C23.0987 232.004 23.272 231.519 23.272 230.912V225.4H25.157V230.964C25.157 231.701 25.001 232.346 24.689 232.901C24.377 233.447 23.9393 233.872 23.376 234.175C22.8127 234.478 22.154 234.63 21.4 234.63ZM28.8228 234.63C28.3028 234.63 27.8391 234.517 27.4318 234.292C27.0331 234.058 26.7168 233.737 26.4828 233.33C26.2575 232.923 26.1448 232.455 26.1448 231.926V227.727H27.9258V231.666C27.9258 232.099 28.0515 232.446 28.3028 232.706C28.5628 232.966 28.9095 233.096 29.3428 233.096C29.6375 233.096 29.9018 233.04 30.1358 232.927C30.3785 232.806 30.5778 232.637 30.7338 232.42V227.727H32.5148V234.5H30.7338V233.954C30.2138 234.405 29.5768 234.63 28.8228 234.63ZM33.5695 234.5V225.4L35.3505 225.101V234.5H33.5695ZM36.41 234.5V227.727H38.191V234.5H36.41ZM37.294 226.921C37.0167 226.921 36.7783 226.821 36.579 226.622C36.3797 226.423 36.28 226.184 36.28 225.907C36.28 225.621 36.3797 225.383 36.579 225.192C36.7783 224.993 37.0167 224.893 37.294 224.893C37.58 224.893 37.8183 224.993 38.009 225.192C38.2083 225.383 38.308 225.621 38.308 225.907C38.308 226.184 38.2083 226.423 38.009 226.622C37.8183 226.821 37.58 226.921 37.294 226.921ZM42.5525 234.63C41.8765 234.63 41.2655 234.474 40.7195 234.162C40.1735 233.85 39.7402 233.43 39.4195 232.901C39.0988 232.372 38.9385 231.779 38.9385 231.12C38.9385 230.461 39.0945 229.868 39.4065 229.339C39.7272 228.802 40.1605 228.377 40.7065 228.065C41.2612 227.753 41.8765 227.597 42.5525 227.597C43.2285 227.597 43.8395 227.753 44.3855 228.065C44.9402 228.377 45.3735 228.802 45.6855 229.339C46.0062 229.868 46.1665 230.461 46.1665 231.12C46.1665 231.779 46.0062 232.372 45.6855 232.901C45.3735 233.43 44.9445 233.85 44.3985 234.162C43.8525 234.474 43.2372 234.63 42.5525 234.63ZM42.5525 233.083C42.9078 233.083 43.2242 232.996 43.5015 232.823C43.7875 232.65 44.0128 232.416 44.1775 232.121C44.3508 231.818 44.4375 231.484 44.4375 231.12C44.4375 230.747 44.3508 230.414 44.1775 230.119C44.0128 229.824 43.7875 229.59 43.5015 229.417C43.2242 229.235 42.9078 229.144 42.5525 229.144C42.2058 229.144 41.8895 229.235 41.6035 229.417C41.3175 229.59 41.0922 229.824 40.9275 230.119C40.7628 230.414 40.6805 230.747 40.6805 231.12C40.6805 231.484 40.7628 231.818 40.9275 232.121C41.0922 232.416 41.3175 232.65 41.6035 232.823C41.8895 232.996 42.2058 233.083 42.5525 233.083Z" fill="#00B493"/>
<path d="M67.5 227.5L63.5 231.5L59.5 227.5" stroke="#333AFF" stroke-width="2" stroke-linecap="round" stroke-linejoin="round"/>
<path d="M100.38 225.545V235H98.3807V227.443H98.3253L96.1602 228.8V227.027L98.5007 225.545H100.38Z" fill="#414750"/>
<rect x="126.5" y="225.5" width="1" height="9" fill="#D9D9D9"/>
<rect x="151.5" y="225.5" width="1" height="9" fill="#D9D9D9"/>
<rect x="176.5" y="225.5" width="1" height="9" fill="#D9D9D9"/>
<rect x="201.5" y="225.5" width="1" height="9" fill="#D9D9D9"/>
<rect x="226.5" y="223.5" width="1" height="13" fill="#D9D9D9"/>
<rect x="251.5" y="225.5" width="1" height="9" fill="#D9D9D9"/>
<rect x="276.5" y="225.5" width="1" height="9" fill="#D9D9D9"/>
<rect x="301.5" y="225.5" width="1" height="9" fill="#D9D9D9"/>
<rect x="326.5" y="225.5" width="1" height="9" fill="#D9D9D9"/>
<path d="M356.38 225.545V235H354.381V227.443H354.325L352.16 228.8V227.027L354.501 225.545H356.38ZM362 235.208C361.206 235.205 360.523 235.009 359.951 234.621C359.381 234.234 358.943 233.672 358.635 232.936C358.33 232.201 358.179 231.316 358.183 230.282C358.183 229.251 358.335 228.372 358.64 227.646C358.947 226.92 359.386 226.367 359.955 225.989C360.528 225.607 361.209 225.416 362 225.416C362.791 225.416 363.472 225.607 364.041 225.989C364.613 226.37 365.053 226.924 365.361 227.651C365.669 228.374 365.821 229.251 365.818 230.282C365.818 231.319 365.664 232.205 365.357 232.941C365.052 233.677 364.615 234.238 364.045 234.626C363.476 235.014 362.794 235.208 362 235.208ZM362 233.55C362.542 233.55 362.974 233.278 363.298 232.733C363.621 232.189 363.781 231.371 363.778 230.282C363.778 229.565 363.704 228.968 363.556 228.491C363.411 228.014 363.205 227.655 362.938 227.415C362.673 227.175 362.36 227.055 362 227.055C361.462 227.055 361.031 227.324 360.708 227.863C360.385 228.402 360.222 229.208 360.218 230.282C360.218 231.008 360.291 231.615 360.435 232.101C360.583 232.584 360.791 232.947 361.059 233.19C361.326 233.43 361.64 233.55 362 233.55Z" fill="#414750"/>
<rect x="391.5" y="225.5" width="1" height="9" fill="#D9D9D9"/>
<rect x="416.5" y="225.5" width="1" height="9" fill="#D9D9D9"/>
<rect x="441.5" y="225.5" width="1" height="9" fill="#D9D9D9"/>
<rect x="466.5" y="225.5" width="1" height="9" fill="#D9D9D9"/>
<rect x="491.5" y="225.5" width="1" height="9" fill="#D9D9D9"/>
<rect x="516.5" y="223.5" width="1" height="13" fill="#D9D9D9"/>
<rect x="541.5" y="225.5" width="1" height="9" fill="#D9D9D9"/>
<rect x="566.5" y="225.5" width="1" height="9" fill="#D9D9D9"/>
<rect x="591.5" y="225.5" width="1" height="9" fill="#D9D9D9"/>
<rect x="616.5" y="225.5" width="1" height="9" fill="#D9D9D9"/>
<path d="M642.266 235V233.56L645.632 230.444C645.918 230.167 646.158 229.917 646.352 229.696C646.549 229.474 646.698 229.257 646.8 229.045C646.901 228.829 646.952 228.597 646.952 228.348C646.952 228.071 646.889 227.832 646.763 227.632C646.637 227.429 646.464 227.274 646.246 227.166C646.027 227.055 645.779 227 645.502 227C645.213 227 644.961 227.058 644.745 227.175C644.53 227.292 644.364 227.46 644.247 227.678C644.13 227.897 644.071 228.157 644.071 228.458H642.174C642.174 227.84 642.314 227.303 642.594 226.847C642.874 226.392 643.267 226.039 643.771 225.79C644.276 225.541 644.858 225.416 645.516 225.416C646.193 225.416 646.783 225.536 647.284 225.776C647.789 226.013 648.182 226.343 648.462 226.764C648.742 227.186 648.882 227.669 648.882 228.214C648.882 228.571 648.811 228.923 648.669 229.271C648.531 229.619 648.283 230.005 647.926 230.43C647.569 230.851 647.066 231.358 646.417 231.949L645.036 233.301V233.366H649.006V235H642.266ZM653.829 235.208C653.034 235.205 652.351 235.009 651.779 234.621C651.209 234.234 650.771 233.672 650.463 232.936C650.158 232.201 650.008 231.316 650.011 230.282C650.011 229.251 650.163 228.372 650.468 227.646C650.775 226.92 651.214 226.367 651.783 225.989C652.356 225.607 653.038 225.416 653.829 225.416C654.619 225.416 655.3 225.607 655.869 225.989C656.441 226.37 656.882 226.924 657.189 227.651C657.497 228.374 657.649 229.251 657.646 230.282C657.646 231.319 657.492 232.205 657.185 232.941C656.88 233.677 656.443 234.238 655.874 234.626C655.304 235.014 654.623 235.208 653.829 235.208ZM653.829 233.55C654.37 233.55 654.803 233.278 655.126 232.733C655.449 232.189 655.609 231.371 655.606 230.282C655.606 229.565 655.532 228.968 655.384 228.491C655.24 228.014 655.033 227.655 654.766 227.415C654.501 227.175 654.189 227.055 653.829 227.055C653.29 227.055 652.859 227.324 652.536 227.863C652.213 228.402 652.05 229.208 652.047 230.282C652.047 231.008 652.119 231.615 652.264 232.101C652.411 232.584 652.619 232.947 652.887 233.19C653.155 233.43 653.468 233.55 653.829 233.55Z" fill="#414750"/>
<rect x="682.5" y="225.5" width="1" height="9" fill="#D9D9D9"/>
<rect x="707.5" y="225.5" width="1" height="9" fill="#D9D9D9"/>
<rect x="732.5" y="225.5" width="1" height="9" fill="#D9D9D9"/>
<rect x="757.5" y="225.5" width="1" height="9" fill="#D9D9D9"/>
<rect x="782.5" y="223.5" width="1" height="13" fill="#D9D9D9"/>
<rect x="807.5" y="225.5" width="1" height="9" fill="#D9D9D9"/>
<rect x="832.5" y="225.5" width="1" height="9" fill="#D9D9D9"/>
<rect x="857.5" y="225.5" width="1" height="9" fill="#D9D9D9"/>
<rect x="882.5" y="225.5" width="1" height="9" fill="#D9D9D9"/>
<path d="M911.761 235.129C911.072 235.129 910.458 235.011 909.919 234.774C909.384 234.534 908.96 234.204 908.65 233.786C908.342 233.364 908.183 232.878 908.174 232.327H910.187C910.199 232.558 910.275 232.761 910.413 232.936C910.555 233.109 910.742 233.243 910.976 233.338C911.21 233.433 911.473 233.481 911.766 233.481C912.07 233.481 912.34 233.427 912.574 233.32C912.807 233.212 912.991 233.063 913.123 232.872C913.255 232.681 913.321 232.461 913.321 232.212C913.321 231.959 913.251 231.736 913.109 231.542C912.971 231.345 912.77 231.191 912.509 231.081C912.25 230.97 911.943 230.914 911.586 230.914H910.704V229.446H911.586C911.887 229.446 912.153 229.394 912.384 229.289C912.618 229.185 912.8 229.04 912.929 228.855C913.058 228.668 913.123 228.449 913.123 228.2C913.123 227.963 913.066 227.755 912.952 227.577C912.841 227.395 912.684 227.254 912.481 227.152C912.281 227.05 912.047 227 911.779 227C911.509 227 911.261 227.049 911.036 227.147C910.812 227.243 910.632 227.38 910.496 227.558C910.361 227.737 910.288 227.946 910.279 228.186H908.363C908.373 227.641 908.528 227.161 908.83 226.746C909.131 226.33 909.537 226.006 910.048 225.772C910.562 225.535 911.142 225.416 911.789 225.416C912.441 225.416 913.012 225.535 913.501 225.772C913.991 226.009 914.371 226.329 914.642 226.732C914.916 227.132 915.051 227.581 915.048 228.08C915.051 228.609 914.886 229.051 914.554 229.405C914.225 229.759 913.795 229.983 913.266 230.079V230.153C913.962 230.242 914.491 230.484 914.854 230.877C915.22 231.268 915.402 231.758 915.399 232.346C915.402 232.884 915.246 233.363 914.933 233.781C914.622 234.2 914.192 234.529 913.645 234.769C913.097 235.009 912.469 235.129 911.761 235.129ZM920.209 235.208C919.415 235.205 918.732 235.009 918.16 234.621C917.59 234.234 917.152 233.672 916.844 232.936C916.539 232.201 916.388 231.316 916.392 230.282C916.392 229.251 916.544 228.372 916.849 227.646C917.156 226.92 917.595 226.367 918.164 225.989C918.737 225.607 919.418 225.416 920.209 225.416C921 225.416 921.68 225.607 922.25 225.989C922.822 226.37 923.262 226.924 923.57 227.651C923.878 228.374 924.03 229.251 924.027 230.282C924.027 231.319 923.873 232.205 923.566 232.941C923.261 233.677 922.824 234.238 922.254 234.626C921.685 235.014 921.003 235.208 920.209 235.208ZM920.209 233.55C920.751 233.55 921.183 233.278 921.507 232.733C921.83 232.189 921.99 231.371 921.987 230.282C921.987 229.565 921.913 228.968 921.765 228.491C921.62 228.014 921.414 227.655 921.147 227.415C920.882 227.175 920.569 227.055 920.209 227.055C919.671 227.055 919.24 227.324 918.917 227.863C918.594 228.402 918.43 229.208 918.427 230.282C918.427 231.008 918.5 231.615 918.644 232.101C918.792 232.584 919 232.947 919.268 233.19C919.535 233.43 919.849 233.55 920.209 233.55Z" fill="#414750"/>
<rect x="950.5" y="223.5" width="1" height="13" fill="#D9D9D9"/>
</svg>
