<svg width="1002" height="251" viewBox="0 0 1002 251" fill="none" xmlns="http://www.w3.org/2000/svg">
<rect width="1002" height="251" rx="8" fill="white"/>
<path d="M20.1403 30L24.0597 22.2443V22.1797H19.494V20.5455H26.1278V22.2028L22.2038 30H20.1403Z" fill="#414750"/>
<path d="M37 33H985" stroke="#D9D9D9" stroke-dasharray="2 2"/>
<path d="M23.3949 60.1293C22.9086 60.1262 22.4393 60.0446 21.9869 59.8846C21.5375 59.7246 21.1344 59.4645 20.7773 59.1044C20.4203 58.7443 20.1372 58.2673 19.9279 57.6733C19.7217 57.0793 19.6186 56.3499 19.6186 55.4851C19.6217 54.6911 19.7125 53.9817 19.891 53.3569C20.0726 52.729 20.3311 52.1966 20.6665 51.7596C21.0051 51.3226 21.4098 50.9902 21.8807 50.7624C22.3516 50.5316 22.8794 50.4162 23.4641 50.4162C24.0951 50.4162 24.6521 50.5393 25.1353 50.7855C25.6185 51.0286 26.0063 51.3595 26.2987 51.7781C26.5941 52.1966 26.7726 52.666 26.8342 53.1861H24.8629C24.786 52.8568 24.6244 52.5982 24.3782 52.4105C24.132 52.2228 23.8273 52.1289 23.4641 52.1289C22.8486 52.1289 22.3808 52.3967 22.0607 52.9322C21.7437 53.4677 21.5821 54.1955 21.576 55.1158H21.6406C21.7822 54.8357 21.973 54.5972 22.2131 54.4002C22.4562 54.2002 22.7317 54.0478 23.0394 53.9432C23.3503 53.8355 23.678 53.7816 24.0227 53.7816C24.5829 53.7816 25.0814 53.9139 25.5185 54.1786C25.9555 54.4402 26.3002 54.8003 26.5526 55.2589C26.8049 55.7174 26.9311 56.2422 26.9311 56.8331C26.9311 57.4732 26.7818 58.0426 26.4833 58.5412C26.1879 59.0398 25.7739 59.4306 25.2415 59.7138C24.7121 59.9938 24.0966 60.1323 23.3949 60.1293ZM23.3857 58.5597C23.6934 58.5597 23.9689 58.4858 24.212 58.3381C24.4551 58.1903 24.646 57.9903 24.7844 57.7379C24.9229 57.4856 24.9922 57.2024 24.9922 56.8885C24.9922 56.5746 24.9229 56.293 24.7844 56.0437C24.649 55.7944 24.4613 55.5959 24.2212 55.4482C23.9812 55.3004 23.7073 55.2266 23.3995 55.2266C23.1687 55.2266 22.9548 55.2696 22.7578 55.3558C22.5639 55.442 22.3931 55.562 22.2454 55.7159C22.1007 55.8698 21.9869 56.0483 21.9038 56.2514C21.8207 56.4515 21.7791 56.6654 21.7791 56.8931C21.7791 57.1978 21.8484 57.4763 21.9869 57.7287C22.1284 57.9811 22.3192 58.1826 22.5593 58.3335C22.8024 58.4843 23.0779 58.5597 23.3857 58.5597Z" fill="#414750"/>
<path d="M38 63H986" stroke="#D9D9D9" stroke-dasharray="2 2"/>
<path d="M23.2195 90.1293C22.567 90.1293 21.9853 90.0092 21.4744 89.7692C20.9666 89.5291 20.5634 89.1983 20.2649 88.7766C19.9664 88.355 19.811 87.8718 19.7987 87.3271H21.7376C21.7591 87.6933 21.913 87.9903 22.1992 88.218C22.4854 88.4458 22.8255 88.5597 23.2195 88.5597C23.5334 88.5597 23.8104 88.4904 24.0504 88.3519C24.2936 88.2103 24.4828 88.0149 24.6183 87.7656C24.7567 87.5133 24.826 87.224 24.826 86.8977C24.826 86.5653 24.7552 86.273 24.6136 86.0206C24.4751 85.7682 24.2828 85.5713 24.0366 85.4297C23.7904 85.2881 23.5088 85.2158 23.1918 85.2127C22.9148 85.2127 22.6455 85.2696 22.3839 85.3835C22.1254 85.4974 21.9238 85.6528 21.7791 85.8498L20.0018 85.5312L20.4496 80.5455H26.2294V82.1797H22.0977L21.853 84.5479H21.9084C22.0746 84.314 22.3254 84.1201 22.6609 83.9663C22.9963 83.8124 23.3718 83.7354 23.7873 83.7354C24.3567 83.7354 24.8645 83.8693 25.3107 84.1371C25.757 84.4048 26.1094 84.7726 26.3679 85.2404C26.6264 85.7051 26.7541 86.2406 26.7511 86.8469C26.7541 87.484 26.6064 88.0503 26.3079 88.5458C26.0124 89.0382 25.5985 89.426 25.0661 89.7092C24.5367 89.9892 23.9212 90.1293 23.2195 90.1293Z" fill="#414750"/>
<path d="M38 93H986" stroke="#D9D9D9" stroke-dasharray="2 2"/>
<path d="M19.6232 118.338V116.764L23.5703 110.545H24.9276V112.724H24.1243L21.636 116.662V116.736H27.245V118.338H19.6232ZM24.1612 120V117.858L24.1982 117.161V110.545H26.0724V120H24.1612Z" fill="#414750"/>
<path d="M38 123H986" stroke="#D9D9D9" stroke-dasharray="2 2"/>
<path d="M23.261 150.129C22.5716 150.129 21.9576 150.011 21.419 149.774C20.8835 149.534 20.4603 149.204 20.1495 148.786C19.8417 148.364 19.6832 147.878 19.674 147.327H21.6868C21.6991 147.558 21.7745 147.761 21.913 147.936C22.0546 148.109 22.2423 148.243 22.4762 148.338C22.7101 148.433 22.9732 148.481 23.2656 148.481C23.5703 148.481 23.8396 148.427 24.0735 148.32C24.3074 148.212 24.4905 148.063 24.6229 147.872C24.7552 147.681 24.8214 147.461 24.8214 147.212C24.8214 146.959 24.7506 146.736 24.609 146.542C24.4705 146.345 24.2705 146.191 24.0089 146.081C23.7504 145.97 23.4426 145.914 23.0856 145.914H22.2038V144.446H23.0856C23.3872 144.446 23.6534 144.394 23.8842 144.289C24.1181 144.185 24.2997 144.04 24.429 143.855C24.5582 143.668 24.6229 143.449 24.6229 143.2C24.6229 142.963 24.5659 142.755 24.4521 142.577C24.3413 142.395 24.1843 142.254 23.9812 142.152C23.7811 142.05 23.5472 142 23.2795 142C23.0086 142 22.7609 142.049 22.5362 142.147C22.3116 142.243 22.1315 142.38 21.9961 142.558C21.8607 142.737 21.7884 142.946 21.7791 143.186H19.8633C19.8725 142.641 20.0279 142.161 20.3295 141.746C20.6312 141.33 21.0374 141.006 21.5483 140.772C22.0623 140.535 22.6424 140.416 23.2887 140.416C23.9412 140.416 24.5121 140.535 25.0014 140.772C25.4908 141.009 25.8709 141.329 26.1417 141.732C26.4156 142.132 26.551 142.581 26.5479 143.08C26.551 143.609 26.3864 144.051 26.054 144.405C25.7247 144.759 25.2953 144.983 24.766 145.079V145.153C25.4615 145.242 25.9909 145.484 26.354 145.877C26.7203 146.268 26.9019 146.758 26.8988 147.346C26.9019 147.884 26.7464 148.363 26.4325 148.781C26.1217 149.2 25.6924 149.529 25.1445 149.769C24.5967 150.009 23.9689 150.129 23.261 150.129Z" fill="#414750"/>
<path d="M38 153H986" stroke="#D9D9D9" stroke-dasharray="2 2"/>
<path d="M19.7663 180V178.56L23.1317 175.444C23.418 175.167 23.658 174.917 23.8519 174.696C24.0489 174.474 24.1982 174.257 24.2997 174.045C24.4013 173.829 24.4521 173.597 24.4521 173.348C24.4521 173.071 24.389 172.832 24.2628 172.632C24.1366 172.429 23.9643 172.274 23.7457 172.166C23.5272 172.055 23.2795 172 23.0025 172C22.7132 172 22.4608 172.058 22.2454 172.175C22.0299 172.292 21.8638 172.46 21.7468 172.678C21.6299 172.897 21.5714 173.157 21.5714 173.458H19.674C19.674 172.84 19.814 172.303 20.0941 171.847C20.3742 171.392 20.7666 171.039 21.2713 170.79C21.776 170.541 22.3577 170.416 23.0163 170.416C23.6934 170.416 24.2828 170.536 24.7844 170.776C25.2892 171.013 25.6816 171.343 25.9616 171.764C26.2417 172.186 26.3817 172.669 26.3817 173.214C26.3817 173.571 26.311 173.923 26.1694 174.271C26.0309 174.619 25.7831 175.005 25.4261 175.43C25.0691 175.851 24.5659 176.358 23.9165 176.949L22.5362 178.301V178.366H26.5064V180H19.7663Z" fill="#414750"/>
<path d="M38 183H986" stroke="#D9D9D9" stroke-dasharray="2 2"/>
<path d="M23.8796 200.545V210H21.8807V202.443H21.8253L19.6602 203.8V202.027L22.0007 200.545H23.8796Z" fill="#414750"/>
<path d="M36 213H538" stroke="#D9D9D9" stroke-dasharray="2 2"/>
<g clip-path="url(#clip0_174_8204)">
<path d="M36 165.769L174.456 136.673L230.555 165.769L370.205 104.838L411.981 200L502.694 71.6346L594.6 78.4808L663.828 53.4923L772.445 78.4808L967 22" stroke="#00408D" stroke-width="2" stroke-linecap="round"/>
</g>
<circle cx="358.5" cy="110.5" r="5.5" fill="#2D29D1" stroke="white" stroke-width="2"/>
<path d="M290.354 112.858V111.753C289.704 111.701 289.089 111.558 288.508 111.324C287.936 111.081 287.433 110.765 287 110.375L288.04 108.867C288.725 109.482 289.496 109.864 290.354 110.011V108.347L289.548 108.191C288.707 108.044 288.101 107.784 287.728 107.411C287.364 107.038 287.182 106.501 287.182 105.799C287.182 105.253 287.308 104.781 287.559 104.382C287.81 103.983 288.174 103.676 288.651 103.459C289.128 103.234 289.695 103.108 290.354 103.082V102.016H291.303V103.121C291.84 103.173 292.373 103.286 292.902 103.459C293.439 103.624 293.938 103.845 294.397 104.122L293.539 105.734C293.132 105.509 292.742 105.327 292.369 105.188C292.005 105.049 291.65 104.95 291.303 104.889V106.579L292.096 106.709C292.989 106.865 293.639 107.129 294.046 107.502C294.462 107.866 294.67 108.373 294.67 109.023C294.67 109.56 294.536 110.028 294.267 110.427C293.998 110.826 293.613 111.142 293.11 111.376C292.616 111.601 292.014 111.731 291.303 111.766V112.858H290.354ZM290.354 106.488V104.811C289.981 104.828 289.682 104.911 289.457 105.058C289.24 105.197 289.132 105.387 289.132 105.63C289.132 105.812 289.167 105.964 289.236 106.085C289.305 106.198 289.414 106.284 289.561 106.345C289.717 106.406 289.925 106.449 290.185 106.475L290.354 106.488ZM291.303 110.076C291.71 110.05 292.035 109.963 292.278 109.816C292.521 109.669 292.642 109.474 292.642 109.231C292.642 109.058 292.612 108.923 292.551 108.828C292.49 108.724 292.373 108.646 292.2 108.594C292.035 108.533 291.797 108.481 291.485 108.438L291.303 108.412V110.076ZM297.495 112V110.57L301.343 106.761C301.49 106.622 301.607 106.488 301.694 106.358C301.78 106.219 301.845 106.081 301.889 105.942C301.932 105.803 301.954 105.665 301.954 105.526C301.954 105.231 301.824 104.989 301.564 104.798C301.312 104.599 300.996 104.499 300.615 104.499C300.207 104.499 299.826 104.586 299.471 104.759C299.115 104.924 298.73 105.21 298.314 105.617L297.196 104.252C297.716 103.758 298.266 103.385 298.847 103.134C299.436 102.883 300.047 102.757 300.68 102.757C301.33 102.757 301.893 102.87 302.37 103.095C302.855 103.312 303.232 103.619 303.501 104.018C303.769 104.408 303.904 104.867 303.904 105.396C303.904 105.682 303.86 105.959 303.774 106.228C303.696 106.488 303.57 106.744 303.397 106.995C303.223 107.246 302.998 107.506 302.721 107.775L300.095 110.31L304.034 110.297V112H297.495ZM305.767 112.143C305.437 112.143 305.151 112.026 304.909 111.792C304.675 111.549 304.558 111.263 304.558 110.934C304.558 110.605 304.675 110.323 304.909 110.089C305.151 109.846 305.437 109.725 305.767 109.725C306.096 109.725 306.378 109.846 306.612 110.089C306.854 110.323 306.976 110.605 306.976 110.934C306.976 111.263 306.854 111.549 306.612 111.792C306.378 112.026 306.096 112.143 305.767 112.143ZM310.768 102.757C311.565 102.757 312.263 102.948 312.861 103.329C313.468 103.71 313.936 104.243 314.265 104.928C314.603 105.604 314.772 106.397 314.772 107.307C314.772 108.269 314.586 109.114 314.213 109.842C313.849 110.57 313.333 111.138 312.666 111.545C312.007 111.944 311.236 112.143 310.352 112.143C309.849 112.143 309.342 112.052 308.831 111.87C308.32 111.688 307.904 111.45 307.583 111.155L308.74 109.725C308.991 109.942 309.256 110.102 309.533 110.206C309.819 110.301 310.144 110.349 310.508 110.349C311.002 110.349 311.418 110.228 311.756 109.985C312.094 109.742 312.35 109.391 312.523 108.932C312.696 108.464 312.783 107.901 312.783 107.242C312.497 107.649 312.15 107.966 311.743 108.191C311.344 108.416 310.915 108.529 310.456 108.529C309.858 108.529 309.329 108.412 308.87 108.178C308.411 107.944 308.051 107.619 307.791 107.203C307.531 106.787 307.401 106.31 307.401 105.773C307.401 105.192 307.544 104.677 307.83 104.226C308.125 103.775 308.528 103.42 309.039 103.16C309.55 102.891 310.127 102.757 310.768 102.757ZM310.794 106.969C311.167 106.969 311.509 106.9 311.821 106.761C312.142 106.622 312.423 106.427 312.666 106.176C312.579 105.829 312.449 105.53 312.276 105.279C312.111 105.019 311.908 104.82 311.665 104.681C311.431 104.542 311.167 104.473 310.872 104.473C310.586 104.473 310.326 104.529 310.092 104.642C309.867 104.746 309.689 104.893 309.559 105.084C309.429 105.275 309.364 105.491 309.364 105.734C309.364 105.977 309.425 106.193 309.546 106.384C309.667 106.566 309.836 106.709 310.053 106.813C310.27 106.917 310.517 106.969 310.794 106.969ZM316.088 112L319.988 104.668H315.048V102.9H322.159V104.395L318.493 112H316.088ZM326.797 112.143C325.974 112.143 325.25 111.948 324.626 111.558C324.011 111.168 323.53 110.622 323.183 109.92C322.845 109.209 322.676 108.386 322.676 107.45C322.676 106.505 322.845 105.682 323.183 104.98C323.53 104.278 324.011 103.732 324.626 103.342C325.25 102.952 325.974 102.757 326.797 102.757C327.62 102.757 328.34 102.952 328.955 103.342C329.579 103.732 330.06 104.278 330.398 104.98C330.745 105.682 330.918 106.505 330.918 107.45C330.918 108.386 330.745 109.209 330.398 109.92C330.06 110.622 329.579 111.168 328.955 111.558C328.34 111.948 327.62 112.143 326.797 112.143ZM326.797 110.323C327.222 110.323 327.586 110.21 327.889 109.985C328.201 109.751 328.439 109.417 328.604 108.984C328.777 108.551 328.864 108.039 328.864 107.45C328.864 106.852 328.777 106.341 328.604 105.916C328.439 105.483 328.201 105.153 327.889 104.928C327.586 104.694 327.222 104.577 326.797 104.577C326.372 104.577 326.004 104.694 325.692 104.928C325.389 105.153 325.15 105.483 324.977 105.916C324.812 106.341 324.73 106.852 324.73 107.45C324.73 108.039 324.812 108.551 324.977 108.984C325.15 109.417 325.389 109.751 325.692 109.985C326.004 110.21 326.372 110.323 326.797 110.323ZM330.607 114.041L331.556 110.349H333.727L332.18 114.041H330.607ZM334.86 112V105.032L332.975 105.786V103.966L335.64 102.9H336.966V112H334.86ZM341.001 112.143C339.727 112.143 338.618 111.736 337.673 110.921L338.869 109.53C339.25 109.842 339.619 110.067 339.974 110.206C340.329 110.345 340.706 110.414 341.105 110.414C341.426 110.414 341.703 110.362 341.937 110.258C342.171 110.145 342.353 109.989 342.483 109.79C342.622 109.591 342.691 109.361 342.691 109.101C342.691 108.72 342.531 108.403 342.21 108.152C341.898 107.901 341.499 107.775 341.014 107.775C340.763 107.775 340.511 107.81 340.26 107.879C340.009 107.948 339.753 108.057 339.493 108.204L338.089 107.788L338.31 102.9H344.264V104.603H339.987L339.896 106.644C340.173 106.505 340.459 106.401 340.754 106.332C341.049 106.263 341.356 106.228 341.677 106.228C342.292 106.228 342.83 106.345 343.289 106.579C343.748 106.804 344.104 107.125 344.355 107.541C344.615 107.957 344.745 108.442 344.745 108.997C344.745 109.621 344.589 110.171 344.277 110.648C343.965 111.116 343.527 111.484 342.964 111.753C342.401 112.013 341.746 112.143 341.001 112.143Z" fill="#414750"/>
<path d="M19.9 231.13C18.99 231.13 18.2187 230.9 17.586 230.441C16.9533 229.982 16.4983 229.323 16.221 228.465L17.963 227.802C18.1537 228.357 18.405 228.764 18.717 229.024C19.0377 229.284 19.432 229.414 19.9 229.414C20.4633 229.414 20.914 229.232 21.252 228.868C21.5987 228.504 21.772 228.019 21.772 227.412V221.9H23.657V227.464C23.657 228.201 23.501 228.846 23.189 229.401C22.877 229.947 22.4393 230.372 21.876 230.675C21.3127 230.978 20.654 231.13 19.9 231.13ZM27.3228 231.13C26.8028 231.13 26.3391 231.017 25.9318 230.792C25.5331 230.558 25.2168 230.237 24.9828 229.83C24.7575 229.423 24.6448 228.955 24.6448 228.426V224.227H26.4258V228.166C26.4258 228.599 26.5515 228.946 26.8028 229.206C27.0628 229.466 27.4095 229.596 27.8428 229.596C28.1375 229.596 28.4018 229.54 28.6358 229.427C28.8785 229.306 29.0778 229.137 29.2338 228.92V224.227H31.0148V231H29.2338V230.454C28.7138 230.905 28.0768 231.13 27.3228 231.13ZM32.0695 231V221.9L33.8505 221.601V231H32.0695ZM34.91 231V224.227H36.691V231H34.91ZM35.794 223.421C35.5167 223.421 35.2783 223.321 35.079 223.122C34.8797 222.923 34.78 222.684 34.78 222.407C34.78 222.121 34.8797 221.883 35.079 221.692C35.2783 221.493 35.5167 221.393 35.794 221.393C36.08 221.393 36.3183 221.493 36.509 221.692C36.7083 221.883 36.808 222.121 36.808 222.407C36.808 222.684 36.7083 222.923 36.509 223.122C36.3183 223.321 36.08 223.421 35.794 223.421ZM41.0525 231.13C40.3765 231.13 39.7655 230.974 39.2195 230.662C38.6735 230.35 38.2402 229.93 37.9195 229.401C37.5988 228.872 37.4385 228.279 37.4385 227.62C37.4385 226.961 37.5945 226.368 37.9065 225.839C38.2272 225.302 38.6605 224.877 39.2065 224.565C39.7612 224.253 40.3765 224.097 41.0525 224.097C41.7285 224.097 42.3395 224.253 42.8855 224.565C43.4402 224.877 43.8735 225.302 44.1855 225.839C44.5062 226.368 44.6665 226.961 44.6665 227.62C44.6665 228.279 44.5062 228.872 44.1855 229.401C43.8735 229.93 43.4445 230.35 42.8985 230.662C42.3525 230.974 41.7372 231.13 41.0525 231.13ZM41.0525 229.583C41.4078 229.583 41.7242 229.496 42.0015 229.323C42.2875 229.15 42.5128 228.916 42.6775 228.621C42.8508 228.318 42.9375 227.984 42.9375 227.62C42.9375 227.247 42.8508 226.914 42.6775 226.619C42.5128 226.324 42.2875 226.09 42.0015 225.917C41.7242 225.735 41.4078 225.644 41.0525 225.644C40.7058 225.644 40.3895 225.735 40.1035 225.917C39.8175 226.09 39.5922 226.324 39.4275 226.619C39.2628 226.914 39.1805 227.247 39.1805 227.62C39.1805 227.984 39.2628 228.318 39.4275 228.621C39.5922 228.916 39.8175 229.15 40.1035 229.323C40.3895 229.496 40.7058 229.583 41.0525 229.583Z" fill="#00B493"/>
<path d="M95.8796 222.045V231.5H93.8807V223.943H93.8253L91.6602 225.3V223.527L94.0007 222.045H95.8796Z" fill="#414750"/>
<rect x="122" y="222" width="1" height="9" fill="#D9D9D9"/>
<rect x="147" y="222" width="1" height="9" fill="#D9D9D9"/>
<rect x="172" y="222" width="1" height="9" fill="#D9D9D9"/>
<rect x="197" y="222" width="1" height="9" fill="#D9D9D9"/>
<rect x="222" y="220" width="1" height="13" fill="#D9D9D9"/>
<rect x="247" y="222" width="1" height="9" fill="#D9D9D9"/>
<rect x="272" y="222" width="1" height="9" fill="#D9D9D9"/>
<rect x="297" y="222" width="1" height="9" fill="#D9D9D9"/>
<rect x="322" y="222" width="1" height="9" fill="#D9D9D9"/>
<path d="M351.88 222.045V231.5H349.881V223.943H349.825L347.66 225.3V223.527L350.001 222.045H351.88ZM357.5 231.708C356.706 231.705 356.023 231.509 355.451 231.121C354.881 230.734 354.443 230.172 354.135 229.436C353.83 228.701 353.679 227.816 353.683 226.782C353.683 225.751 353.835 224.872 354.14 224.146C354.447 223.42 354.886 222.867 355.455 222.489C356.028 222.107 356.709 221.916 357.5 221.916C358.291 221.916 358.972 222.107 359.541 222.489C360.113 222.87 360.553 223.424 360.861 224.151C361.169 224.874 361.321 225.751 361.318 226.782C361.318 227.819 361.164 228.705 360.857 229.441C360.552 230.177 360.115 230.738 359.545 231.126C358.976 231.514 358.294 231.708 357.5 231.708ZM357.5 230.05C358.042 230.05 358.474 229.778 358.798 229.233C359.121 228.689 359.281 227.871 359.278 226.782C359.278 226.065 359.204 225.468 359.056 224.991C358.911 224.514 358.705 224.155 358.438 223.915C358.173 223.675 357.86 223.555 357.5 223.555C356.962 223.555 356.531 223.824 356.208 224.363C355.885 224.902 355.722 225.708 355.718 226.782C355.718 227.508 355.791 228.115 355.935 228.601C356.083 229.084 356.291 229.447 356.559 229.69C356.826 229.93 357.14 230.05 357.5 230.05Z" fill="#414750"/>
<rect x="386" y="222" width="1" height="9" fill="#D9D9D9"/>
<rect x="411" y="222" width="1" height="9" fill="#D9D9D9"/>
<rect x="436" y="222" width="1" height="9" fill="#D9D9D9"/>
<rect x="461" y="222" width="1" height="9" fill="#D9D9D9"/>
<rect x="486" y="222" width="1" height="9" fill="#D9D9D9"/>
<rect x="511" y="220" width="1" height="13" fill="#D9D9D9"/>
<rect x="536" y="222" width="1" height="9" fill="#D9D9D9"/>
<rect x="561" y="222" width="1" height="9" fill="#D9D9D9"/>
<rect x="586" y="222" width="1" height="9" fill="#D9D9D9"/>
<rect x="611" y="222" width="1" height="9" fill="#D9D9D9"/>
<path d="M636.766 231.5V230.06L640.132 226.944C640.418 226.667 640.658 226.417 640.852 226.196C641.049 225.974 641.198 225.757 641.3 225.545C641.401 225.329 641.452 225.097 641.452 224.848C641.452 224.571 641.389 224.332 641.263 224.132C641.137 223.929 640.964 223.774 640.746 223.666C640.527 223.555 640.279 223.5 640.002 223.5C639.713 223.5 639.461 223.558 639.245 223.675C639.03 223.792 638.864 223.96 638.747 224.178C638.63 224.397 638.571 224.657 638.571 224.958H636.674C636.674 224.34 636.814 223.803 637.094 223.347C637.374 222.892 637.767 222.539 638.271 222.29C638.776 222.041 639.358 221.916 640.016 221.916C640.693 221.916 641.283 222.036 641.784 222.276C642.289 222.513 642.682 222.843 642.962 223.264C643.242 223.686 643.382 224.169 643.382 224.714C643.382 225.071 643.311 225.423 643.169 225.771C643.031 226.119 642.783 226.505 642.426 226.93C642.069 227.351 641.566 227.858 640.917 228.449L639.536 229.801V229.866H643.506V231.5H636.766ZM648.329 231.708C647.534 231.705 646.851 231.509 646.279 231.121C645.709 230.734 645.271 230.172 644.963 229.436C644.658 228.701 644.508 227.816 644.511 226.782C644.511 225.751 644.663 224.872 644.968 224.146C645.275 223.42 645.714 222.867 646.283 222.489C646.856 222.107 647.538 221.916 648.329 221.916C649.119 221.916 649.8 222.107 650.369 222.489C650.941 222.87 651.382 223.424 651.689 224.151C651.997 224.874 652.149 225.751 652.146 226.782C652.146 227.819 651.992 228.705 651.685 229.441C651.38 230.177 650.943 230.738 650.374 231.126C649.804 231.514 649.123 231.708 648.329 231.708ZM648.329 230.05C648.87 230.05 649.303 229.778 649.626 229.233C649.949 228.689 650.109 227.871 650.106 226.782C650.106 226.065 650.032 225.468 649.884 224.991C649.74 224.514 649.533 224.155 649.266 223.915C649.001 223.675 648.689 223.555 648.329 223.555C647.79 223.555 647.359 223.824 647.036 224.363C646.713 224.902 646.55 225.708 646.547 226.782C646.547 227.508 646.619 228.115 646.764 228.601C646.911 229.084 647.119 229.447 647.387 229.69C647.655 229.93 647.968 230.05 648.329 230.05Z" fill="#414750"/>
<rect x="677" y="222" width="1" height="9" fill="#D9D9D9"/>
<rect x="702" y="222" width="1" height="9" fill="#D9D9D9"/>
<rect x="727" y="222" width="1" height="9" fill="#D9D9D9"/>
<rect x="752" y="222" width="1" height="9" fill="#D9D9D9"/>
<rect x="777" y="220" width="1" height="13" fill="#D9D9D9"/>
<rect x="802" y="222" width="1" height="9" fill="#D9D9D9"/>
<rect x="827" y="222" width="1" height="9" fill="#D9D9D9"/>
<rect x="852" y="222" width="1" height="9" fill="#D9D9D9"/>
<rect x="877" y="222" width="1" height="9" fill="#D9D9D9"/>
<path d="M906.261 231.629C905.572 231.629 904.958 231.511 904.419 231.274C903.884 231.034 903.46 230.704 903.15 230.286C902.842 229.864 902.683 229.378 902.674 228.827H904.687C904.699 229.058 904.775 229.261 904.913 229.436C905.055 229.609 905.242 229.743 905.476 229.838C905.71 229.933 905.973 229.981 906.266 229.981C906.57 229.981 906.84 229.927 907.074 229.82C907.307 229.712 907.491 229.563 907.623 229.372C907.755 229.181 907.821 228.961 907.821 228.712C907.821 228.459 907.751 228.236 907.609 228.042C907.471 227.845 907.27 227.691 907.009 227.581C906.75 227.47 906.443 227.414 906.086 227.414H905.204V225.946H906.086C906.387 225.946 906.653 225.894 906.884 225.789C907.118 225.685 907.3 225.54 907.429 225.355C907.558 225.168 907.623 224.949 907.623 224.7C907.623 224.463 907.566 224.255 907.452 224.077C907.341 223.895 907.184 223.754 906.981 223.652C906.781 223.55 906.547 223.5 906.279 223.5C906.009 223.5 905.761 223.549 905.536 223.647C905.312 223.743 905.132 223.88 904.996 224.058C904.861 224.237 904.788 224.446 904.779 224.686H902.863C902.873 224.141 903.028 223.661 903.33 223.246C903.631 222.83 904.037 222.506 904.548 222.272C905.062 222.035 905.642 221.916 906.289 221.916C906.941 221.916 907.512 222.035 908.001 222.272C908.491 222.509 908.871 222.829 909.142 223.232C909.416 223.632 909.551 224.081 909.548 224.58C909.551 225.109 909.386 225.551 909.054 225.905C908.725 226.259 908.295 226.483 907.766 226.579V226.653C908.462 226.742 908.991 226.984 909.354 227.377C909.72 227.768 909.902 228.258 909.899 228.846C909.902 229.384 909.746 229.863 909.433 230.281C909.122 230.7 908.692 231.029 908.145 231.269C907.597 231.509 906.969 231.629 906.261 231.629ZM914.709 231.708C913.915 231.705 913.232 231.509 912.66 231.121C912.09 230.734 911.652 230.172 911.344 229.436C911.039 228.701 910.888 227.816 910.892 226.782C910.892 225.751 911.044 224.872 911.349 224.146C911.656 223.42 912.095 222.867 912.664 222.489C913.237 222.107 913.918 221.916 914.709 221.916C915.5 221.916 916.18 222.107 916.75 222.489C917.322 222.87 917.762 223.424 918.07 224.151C918.378 224.874 918.53 225.751 918.527 226.782C918.527 227.819 918.373 228.705 918.066 229.441C917.761 230.177 917.324 230.738 916.754 231.126C916.185 231.514 915.503 231.708 914.709 231.708ZM914.709 230.05C915.251 230.05 915.683 229.778 916.007 229.233C916.33 228.689 916.49 227.871 916.487 226.782C916.487 226.065 916.413 225.468 916.265 224.991C916.12 224.514 915.914 224.155 915.647 223.915C915.382 223.675 915.069 223.555 914.709 223.555C914.171 223.555 913.74 223.824 913.417 224.363C913.094 224.902 912.93 225.708 912.927 226.782C912.927 227.508 913 228.115 913.144 228.601C913.292 229.084 913.5 229.447 913.768 229.69C914.035 229.93 914.349 230.05 914.709 230.05Z" fill="#414750"/>
<rect x="944" y="220" width="1" height="13" fill="#D9D9D9"/>
<defs>
<clipPath id="clip0_174_8204">
<rect width="950" height="195" fill="white" transform="translate(36 17)"/>
</clipPath>
</defs>
</svg>
