<svg width="463" height="71" viewBox="0 0 463 71" fill="none" xmlns="http://www.w3.org/2000/svg">
<g clip-path="url(#clip0_124_5882)">
<path d="M48.9513 49.4821C48.9777 52.2551 48.3738 54.9973 47.186 57.498C46.0499 59.8824 44.4573 62.0163 42.5001 63.7766C40.5284 65.5612 38.2446 66.9595 35.7654 67.9001C33.2002 68.8831 30.478 69.3825 27.734 69.3735L0 69.2746V0.000902311H24.7263C27.5455 -0.0230598 30.3488 0.430397 33.0193 1.34239C35.4687 2.18819 37.7279 3.51486 39.6667 5.24591C41.5765 6.9718 43.087 9.10025 44.0911 11.4805C45.1872 14.1101 45.729 16.9411 45.6821 19.7934C45.6832 22.4035 45.0944 24.9796 43.9603 27.3255C42.8774 29.6692 41.331 31.7646 39.4161 33.4832C40.8818 34.2031 42.2275 35.1491 43.4045 36.2871C44.5711 37.4303 45.5825 38.7244 46.4122 40.1356C47.2382 41.5463 47.8723 43.0626 48.2975 44.6439C48.7328 46.2191 48.9527 47.8468 48.9513 49.4821V49.4821ZM32.5398 20.0133C32.5811 18.5138 32.2594 17.0267 31.6026 15.6809C30.9873 14.4935 30.1204 13.4574 29.0635 12.6461C27.9652 11.8238 26.7283 11.2091 25.4129 10.8318C24.0178 10.4234 22.5718 10.2197 21.1193 10.227H13.3058V29.2828C14.7443 29.3487 16.0301 29.3707 17.1744 29.3707H21.1193C22.5659 29.3743 24.0076 29.2008 25.4129 28.8539C26.7208 28.5381 27.9589 27.9787 29.0635 27.2046C30.1256 26.4533 30.9958 25.4584 31.6026 24.3017C32.2653 22.9737 32.5875 21.4993 32.5398 20.0133V20.0133ZM35.1225 48.6904C35.1372 47.3197 34.8584 45.9619 34.3052 44.7099C33.7888 43.5334 33.0268 42.4832 32.0712 41.6311C31.1089 40.7856 30.0007 40.1259 28.802 39.6848C27.5205 39.2149 26.166 38.9802 24.8026 38.9921C22.8629 38.9371 20.9449 38.9151 19.0487 38.9921C17.1526 39.069 15.2455 38.9921 13.2949 38.9921V58.1358H23.2552C24.7017 58.1383 26.1434 57.9648 27.5488 57.619C28.9172 57.3 30.2145 56.7257 31.3738 55.9256C32.4812 55.1591 33.4046 54.1522 34.0763 52.9788C34.8019 51.6706 35.1633 50.1889 35.1225 48.6904V48.6904Z" fill="#333AFF"/>
<path d="M96.9875 69.2745H84.5862V66.6355C82.4904 68.0962 80.144 69.1514 77.6663 69.7473C75.2057 70.3316 72.6857 70.6231 70.1579 70.6159C67.9313 70.6401 65.7179 70.2679 63.6195 69.5164C61.7385 68.8318 60.0146 67.7695 58.5521 66.3936C57.1401 65.0413 56.0261 63.404 55.2829 61.5884C54.4886 59.6356 54.092 57.5414 54.1169 55.4307C54.059 52.8368 54.6993 50.2755 55.9695 48.0195C57.2297 45.8968 58.9605 44.0977 61.0259 42.7635C63.2793 41.2795 65.7723 40.204 68.3925 39.5857C71.3883 38.8725 74.4576 38.5218 77.5355 38.5411H84.6624C84.7235 37.2343 84.5017 35.9298 84.0124 34.7182C83.5231 33.5067 82.778 32.4173 81.8291 31.5258C79.9438 29.7995 77.2195 28.9308 73.6778 28.9308C71.8621 28.949 70.0618 29.2685 68.349 29.8764C66.3188 30.6516 64.4653 31.8336 62.9002 33.3511L55.5771 25.9069C58.2163 23.3616 61.3219 21.3597 64.7201 20.0132C68.1201 18.6405 71.7485 17.9351 75.4105 17.935C78.5461 17.8789 81.6626 18.4391 84.5862 19.5844C87.1553 20.5883 89.4751 22.1483 91.3823 24.1545C93.2896 26.1606 94.7379 28.5641 95.6253 31.1959C96.6096 34.5676 97.0691 38.073 96.9875 41.587V69.2745ZM84.5862 56.8382V47.5687H78.9195C77.293 47.5634 75.6683 47.681 74.0592 47.9206C72.6932 48.1045 71.3629 48.4975 70.1143 49.0861C69.0733 49.57 68.1617 50.2975 67.4554 51.2083C66.7857 52.1063 66.4398 53.2079 66.4746 54.3311C66.4589 55.1483 66.633 55.9578 66.9831 56.6949C67.3332 57.4319 67.8495 58.076 68.4906 58.5755C69.9792 59.72 71.8192 60.2999 73.6887 60.2139C75.5378 60.2114 77.3755 59.9221 79.1374 59.3562C81.0418 58.7265 82.8696 57.8818 84.5862 56.8382V56.8382Z" fill="#333AFF"/>
<path d="M151.649 69.2744H139.28V39.4207C139.312 37.8099 139.034 36.2081 138.463 34.7035C137.981 33.4355 137.238 32.285 136.284 31.3278C135.384 30.4456 134.311 29.7638 133.134 29.3265C131.961 28.8964 130.721 28.6768 129.473 28.6778C127.558 28.6787 125.659 29.0174 123.86 29.6784C121.992 30.3645 120.288 31.4398 118.859 32.8342V69.2744H106.479V19.2324H118.837L118.924 22.96C119.753 22.1566 120.679 21.4621 121.681 20.8928C122.762 20.2585 123.896 19.7213 125.07 19.2874C126.243 18.8576 127.45 18.5265 128.677 18.2977C129.852 18.0705 131.045 17.9527 132.241 17.9459C134.71 17.9396 137.162 18.3484 139.498 19.1554C141.789 19.9574 143.893 21.2262 145.677 22.883C147.58 24.7045 149.068 26.9219 150.036 29.3815C151.189 32.3915 151.744 35.6008 151.671 38.8269L151.649 69.2744Z" fill="#333AFF"/>
<path d="M316.081 69.2744H303.723V39.4207C303.751 37.8092 303.47 36.2074 302.895 34.7035C302.417 33.4334 301.674 32.282 300.715 31.3278C299.821 30.4438 298.752 29.7616 297.577 29.3266C296.399 28.8965 295.156 28.6769 293.904 28.6778C291.994 28.6785 290.098 29.0171 288.303 29.6784C286.443 30.3627 284.749 31.4385 283.334 32.8342V69.2744H270.911V19.2324H283.334L283.421 22.96C284.227 22.1579 285.132 21.4632 286.113 20.8928C287.198 20.2606 288.336 19.7235 289.513 19.2874C290.682 18.8576 291.885 18.5266 293.109 18.2978C294.283 18.0705 295.476 17.9528 296.672 17.9459C299.141 17.9388 301.594 18.3476 303.93 19.1554C306.225 19.9549 308.333 21.2239 310.12 22.883C312.023 24.7045 313.51 26.9219 314.479 29.3815C315.622 32.3938 316.174 35.602 316.102 38.827L316.081 69.2744Z" fill="#333AFF"/>
<path d="M376.79 44.1932C376.789 45.0306 376.745 45.8674 376.66 46.7003C376.572 47.569 376.474 48.4706 376.365 49.3943H336.731C337.193 50.8445 337.841 52.2272 338.66 53.5067C339.488 54.7921 340.519 55.9324 341.711 56.8824C342.943 57.8526 344.324 58.614 345.798 59.1366C347.409 59.7028 349.105 59.9819 350.811 59.9612C353.069 59.9422 355.308 59.5446 357.436 58.7847C359.484 58.1138 361.38 57.0413 363.016 55.6289L370.829 63.5129C367.791 65.8964 364.38 67.7543 360.738 69.0108C357.366 70.0918 353.848 70.6334 350.31 70.6162C346.73 70.6446 343.181 69.9375 339.881 68.538C336.744 67.2185 333.885 65.3078 331.457 62.9081C329.064 60.5117 327.155 57.67 325.834 54.5403C324.475 51.292 323.774 47.8017 323.774 44.2757C323.774 40.7497 324.475 37.2595 325.834 34.0111C327.163 30.8749 329.088 28.0321 331.501 25.6433C333.961 23.2475 336.844 21.338 340.001 20.0134C343.256 18.6173 346.761 17.9099 350.299 17.9352C353.741 17.9246 357.153 18.5855 360.346 19.8815C363.485 21.1468 366.367 22.9844 368.846 25.3024C371.325 27.6337 373.312 30.4462 374.687 33.5713C376.129 36.9205 376.847 40.5419 376.79 44.1932ZM363.822 39.3331C362.944 36.2755 361.123 33.5795 358.624 31.636C356.214 29.7268 353.232 28.7029 350.168 28.7331C347.145 28.7109 344.206 29.7356 341.842 31.636C339.366 33.5923 337.563 36.2852 336.688 39.3331H363.822Z" fill="#333AFF"/>
<path d="M429.262 61.7755C426.768 64.652 423.65 66.9096 420.151 68.373C416.616 69.8558 412.821 70.6038 408.992 70.5721C405.492 70.5945 402.022 69.9181 398.781 68.5819C395.665 67.3275 392.827 65.4592 390.434 63.0861C388.041 60.713 386.141 57.8826 384.844 54.7602C383.467 51.4428 382.774 47.8775 382.806 44.2811C382.775 40.724 383.468 37.1984 384.844 33.9231C386.151 30.8078 388.033 27.9718 390.39 25.5663C392.765 23.166 395.587 21.2638 398.694 19.9694C401.958 18.6032 405.459 17.9115 408.992 17.9352C412.684 17.9185 416.344 18.6243 419.77 20.0134C423.18 21.4214 426.223 23.6038 428.662 26.3909L420.326 34.9677C419.075 33.2921 417.518 31.8737 415.738 30.7893C413.746 29.6548 411.486 29.0885 409.199 29.1509C407.341 29.1391 405.504 29.5526 403.827 30.3604C402.154 31.1753 400.643 32.2934 399.37 33.6592C398.056 35.0522 397.02 36.6873 396.319 38.4753C395.231 41.2312 394.934 44.24 395.46 47.1583C395.986 50.0766 397.314 52.7869 399.294 54.9801C400.553 56.3613 402.067 57.4818 403.751 58.2788C405.454 59.0882 407.316 59.5015 409.199 59.4884C411.548 59.5215 413.861 58.9096 415.89 57.718C417.806 56.5733 419.432 54.9963 420.642 53.1108L429.262 61.7755Z" fill="#333AFF"/>
<path d="M463 68.1751C461.659 69.0252 460.185 69.6421 458.641 70.0004C457.011 70.4024 455.339 70.6055 453.661 70.6051C451.158 70.6587 448.664 70.287 446.283 69.5056C444.406 68.8778 442.738 67.7357 441.467 66.2068C440.182 64.5225 439.288 62.5685 438.851 60.489C438.268 57.8139 437.994 55.0798 438.034 52.3411V30.4154H431.496V24.7856C435.348 23.2231 438.715 20.649 441.249 17.3304C443.94 13.5293 445.689 9.13282 446.349 4.50928H450.381V19.1447H462.913V30.4154H450.381V53.1988C450.346 54.2599 450.505 55.3185 450.849 56.3216C451.101 57.0685 451.531 57.7409 452.103 58.2788C452.604 58.7336 453.205 59.0615 453.857 59.2355C454.544 59.4113 455.251 59.4964 455.96 59.4884C457.15 59.4614 458.332 59.2878 459.48 58.9716C460.773 58.651 461.977 58.0381 463 57.1793V68.1751Z" fill="#333AFF"/>
<path d="M236.693 71.0012C232.417 71.0026 228.205 69.9566 224.418 67.9533C220.631 65.9499 217.383 63.0489 214.952 59.4995L214.691 59.1477L219.039 56.0798L223.005 52.0994L223.31 52.4182L223.888 53.2319C225.781 55.9936 228.501 58.0709 231.649 59.1591C234.797 60.2474 238.208 60.2894 241.382 59.2791C244.555 58.2687 247.324 56.2591 249.284 53.5449C251.243 50.8306 252.289 47.5545 252.268 44.1967C252.247 40.8389 251.161 37.5761 249.169 34.8866C247.176 32.1971 244.383 30.2224 241.197 29.2518C238.011 28.2813 234.601 28.3661 231.466 29.4937C228.332 30.6213 225.638 32.7324 223.779 35.5177L223.681 35.6606L215.181 47.5141L206.354 41.0705L214.8 29.283C217.371 25.4762 220.873 22.4044 224.967 20.3657C229.061 18.3269 233.608 17.3904 238.167 17.647C242.725 17.9035 247.14 19.3445 250.984 21.83C254.828 24.3155 257.971 27.7612 260.106 31.833C262.242 35.9047 263.298 40.4643 263.173 45.0693C263.048 49.6743 261.745 54.1686 259.392 58.1161C257.038 62.0635 253.713 65.3303 249.74 67.5995C245.767 69.8686 241.28 71.0631 236.714 71.0671L236.693 71.0012Z" fill="#333AFF"/>
<path d="M184.788 71.0011C180.617 71.0119 176.503 70.0289 172.78 68.1322C169.057 66.2354 165.83 63.4785 163.363 60.0858C160.895 56.6931 159.256 52.7604 158.58 48.6079C157.903 44.4553 158.207 40.2002 159.468 36.1889C160.729 32.1775 162.911 28.5232 165.836 25.5233C168.761 22.5235 172.347 20.2628 176.301 18.9254C180.255 17.588 184.467 17.2115 188.593 17.8267C192.719 18.4419 196.642 20.0313 200.044 22.4656L193.746 31.4382C191.203 29.6301 188.181 28.6314 185.071 28.5707C181.961 28.51 178.903 29.3901 176.293 31.0976C173.682 32.8051 171.638 35.2619 170.423 38.1518C169.209 41.0416 168.879 44.2322 169.477 47.3128C170.074 50.3934 171.572 53.2229 173.777 55.4372C175.982 57.6515 178.794 59.1491 181.85 59.7373C184.906 60.3255 188.066 59.9773 190.924 58.7376C193.782 57.4978 196.207 55.4233 197.887 52.7811L198.05 52.5392L206.332 41.0045L215.159 47.4481L206.953 58.8727C204.555 62.5998 201.27 65.6621 197.399 67.7804C193.527 69.8988 189.192 71.006 184.788 71.0011Z" fill="#333AFF"/>
<path d="M48.9513 49.4821C48.9777 52.2551 48.3738 54.9973 47.186 57.498C46.0499 59.8824 44.4573 62.0163 42.5001 63.7766C40.5284 65.5612 38.2446 66.9595 35.7654 67.9001C33.2002 68.8831 30.478 69.3825 27.734 69.3735L0 69.2746V0.000902311H24.7263C27.5455 -0.0230598 30.3488 0.430397 33.0193 1.34239C35.4687 2.18819 37.7279 3.51486 39.6667 5.24591C41.5765 6.9718 43.087 9.10025 44.0911 11.4805C45.1872 14.1101 45.729 16.9411 45.6821 19.7934C45.6832 22.4035 45.0944 24.9796 43.9603 27.3255C42.8774 29.6692 41.331 31.7646 39.4161 33.4832C40.8818 34.2031 42.2275 35.1491 43.4045 36.2871C44.5711 37.4303 45.5825 38.7244 46.4122 40.1356C47.2382 41.5463 47.8723 43.0626 48.2975 44.6439C48.7328 46.2191 48.9527 47.8468 48.9513 49.4821V49.4821ZM32.5398 20.0133C32.5811 18.5138 32.2594 17.0267 31.6026 15.6809C30.9873 14.4935 30.1204 13.4574 29.0635 12.6461C27.9652 11.8238 26.7283 11.2091 25.4129 10.8318C24.0178 10.4234 22.5718 10.2197 21.1193 10.227H13.3058V29.2828C14.7443 29.3487 16.0301 29.3707 17.1744 29.3707H21.1193C22.5659 29.3743 24.0076 29.2008 25.4129 28.8539C26.7208 28.5381 27.9589 27.9787 29.0635 27.2046C30.1256 26.4533 30.9958 25.4584 31.6026 24.3017C32.2653 22.9737 32.5875 21.4993 32.5398 20.0133V20.0133ZM35.1225 48.6904C35.1372 47.3197 34.8584 45.9619 34.3052 44.7099C33.7888 43.5334 33.0268 42.4832 32.0712 41.6311C31.1089 40.7856 30.0007 40.1259 28.802 39.6848C27.5205 39.2149 26.166 38.9802 24.8026 38.9921C22.8629 38.9371 20.9449 38.9151 19.0487 38.9921C17.1526 39.069 15.2455 38.9921 13.2949 38.9921V58.1358H23.2552C24.7017 58.1383 26.1434 57.9648 27.5488 57.619C28.9172 57.3 30.2145 56.7257 31.3738 55.9256C32.4812 55.1591 33.4046 54.1522 34.0763 52.9788C34.8019 51.6706 35.1633 50.1889 35.1225 48.6904V48.6904Z" fill="#333AFF"/>
<path d="M96.9875 69.2745H84.5862V66.6355C82.4904 68.0962 80.144 69.1514 77.6663 69.7473C75.2057 70.3316 72.6857 70.6231 70.1579 70.6159C67.9313 70.6401 65.7179 70.2679 63.6195 69.5164C61.7385 68.8318 60.0146 67.7695 58.5521 66.3936C57.1401 65.0413 56.0261 63.404 55.2829 61.5884C54.4886 59.6356 54.092 57.5414 54.1169 55.4307C54.059 52.8368 54.6993 50.2755 55.9695 48.0195C57.2297 45.8968 58.9605 44.0977 61.0259 42.7635C63.2793 41.2795 65.7723 40.204 68.3925 39.5857C71.3883 38.8725 74.4576 38.5218 77.5355 38.5411H84.6624C84.7235 37.2343 84.5017 35.9298 84.0124 34.7182C83.5231 33.5067 82.778 32.4173 81.8291 31.5258C79.9438 29.7995 77.2195 28.9308 73.6778 28.9308C71.8621 28.949 70.0618 29.2685 68.349 29.8764C66.3188 30.6516 64.4653 31.8336 62.9002 33.3511L55.5771 25.9069C58.2163 23.3616 61.3219 21.3597 64.7201 20.0132C68.1201 18.6405 71.7485 17.9351 75.4105 17.935C78.5461 17.8789 81.6626 18.4391 84.5862 19.5844C87.1553 20.5883 89.4751 22.1483 91.3823 24.1545C93.2896 26.1606 94.7379 28.5641 95.6253 31.1959C96.6096 34.5676 97.0691 38.073 96.9875 41.587V69.2745ZM84.5862 56.8382V47.5687H78.9195C77.293 47.5634 75.6683 47.681 74.0592 47.9206C72.6932 48.1045 71.3629 48.4975 70.1143 49.0861C69.0733 49.57 68.1617 50.2975 67.4554 51.2083C66.7857 52.1063 66.4398 53.2079 66.4746 54.3311C66.4589 55.1483 66.633 55.9578 66.9831 56.6949C67.3332 57.4319 67.8495 58.076 68.4906 58.5755C69.9792 59.72 71.8192 60.2999 73.6887 60.2139C75.5378 60.2114 77.3755 59.9221 79.1374 59.3562C81.0418 58.7265 82.8696 57.8818 84.5862 56.8382V56.8382Z" fill="#333AFF"/>
<path d="M151.649 69.2744H139.28V39.4207C139.312 37.8099 139.034 36.2081 138.463 34.7035C137.981 33.4355 137.238 32.285 136.284 31.3278C135.384 30.4456 134.311 29.7638 133.134 29.3265C131.961 28.8964 130.721 28.6768 129.473 28.6778C127.558 28.6787 125.659 29.0174 123.86 29.6784C121.992 30.3645 120.288 31.4398 118.859 32.8342V69.2744H106.479V19.2324H118.837L118.924 22.96C119.753 22.1566 120.679 21.4621 121.681 20.8928C122.762 20.2585 123.896 19.7213 125.07 19.2874C126.243 18.8576 127.45 18.5265 128.677 18.2977C129.852 18.0705 131.045 17.9527 132.241 17.9459C134.71 17.9396 137.162 18.3484 139.498 19.1554C141.789 19.9574 143.893 21.2262 145.677 22.883C147.58 24.7045 149.068 26.9219 150.036 29.3815C151.189 32.3915 151.744 35.6008 151.671 38.8269L151.649 69.2744Z" fill="#333AFF"/>
<path d="M316.081 69.2744H303.723V39.4207C303.751 37.8092 303.47 36.2074 302.895 34.7035C302.417 33.4334 301.674 32.282 300.715 31.3278C299.821 30.4438 298.752 29.7616 297.577 29.3266C296.399 28.8965 295.156 28.6769 293.904 28.6778C291.994 28.6785 290.098 29.0171 288.303 29.6784C286.443 30.3627 284.749 31.4385 283.334 32.8342V69.2744H270.911V19.2324H283.334L283.421 22.96C284.227 22.1579 285.132 21.4632 286.113 20.8928C287.198 20.2606 288.336 19.7235 289.513 19.2874C290.682 18.8576 291.885 18.5266 293.109 18.2978C294.283 18.0705 295.476 17.9528 296.672 17.9459C299.141 17.9388 301.594 18.3476 303.93 19.1554C306.225 19.9549 308.333 21.2239 310.12 22.883C312.023 24.7045 313.51 26.9219 314.479 29.3815C315.622 32.3938 316.174 35.602 316.102 38.827L316.081 69.2744Z" fill="#333AFF"/>
<path d="M376.79 44.1932C376.789 45.0306 376.745 45.8674 376.66 46.7003C376.572 47.569 376.474 48.4706 376.365 49.3943H336.731C337.193 50.8445 337.841 52.2272 338.66 53.5067C339.488 54.7921 340.519 55.9324 341.711 56.8824C342.943 57.8526 344.324 58.614 345.798 59.1366C347.409 59.7028 349.105 59.9819 350.811 59.9612C353.069 59.9422 355.308 59.5446 357.436 58.7847C359.484 58.1138 361.38 57.0413 363.016 55.6289L370.829 63.5129C367.791 65.8964 364.38 67.7543 360.738 69.0108C357.366 70.0918 353.848 70.6334 350.31 70.6162C346.73 70.6446 343.181 69.9375 339.881 68.538C336.744 67.2185 333.885 65.3078 331.457 62.9081C329.064 60.5117 327.155 57.67 325.834 54.5403C324.475 51.292 323.774 47.8017 323.774 44.2757C323.774 40.7497 324.475 37.2595 325.834 34.0111C327.163 30.8749 329.088 28.0321 331.501 25.6433C333.961 23.2475 336.844 21.338 340.001 20.0134C343.256 18.6173 346.761 17.9099 350.299 17.9352C353.741 17.9246 357.153 18.5855 360.346 19.8815C363.485 21.1468 366.367 22.9844 368.846 25.3024C371.325 27.6337 373.312 30.4462 374.687 33.5713C376.129 36.9205 376.847 40.5419 376.79 44.1932ZM363.822 39.3331C362.944 36.2755 361.123 33.5795 358.624 31.636C356.214 29.7268 353.232 28.7029 350.168 28.7331C347.145 28.7109 344.206 29.7356 341.842 31.636C339.366 33.5923 337.563 36.2852 336.688 39.3331H363.822Z" fill="#333AFF"/>
<path d="M429.262 61.7755C426.768 64.652 423.65 66.9096 420.151 68.373C416.616 69.8558 412.821 70.6038 408.992 70.5721C405.492 70.5945 402.022 69.9181 398.781 68.5819C395.665 67.3275 392.827 65.4592 390.434 63.0861C388.041 60.713 386.141 57.8826 384.844 54.7602C383.467 51.4428 382.774 47.8775 382.806 44.2811C382.775 40.724 383.468 37.1984 384.844 33.9231C386.151 30.8078 388.033 27.9718 390.39 25.5663C392.765 23.166 395.587 21.2638 398.694 19.9694C401.958 18.6032 405.459 17.9115 408.992 17.9352C412.684 17.9185 416.344 18.6243 419.77 20.0134C423.18 21.4214 426.223 23.6038 428.662 26.3909L420.326 34.9677C419.075 33.2921 417.518 31.8737 415.738 30.7893C413.746 29.6548 411.486 29.0885 409.199 29.1509C407.341 29.1391 405.504 29.5526 403.827 30.3604C402.154 31.1753 400.643 32.2934 399.37 33.6592C398.056 35.0522 397.02 36.6873 396.319 38.4753C395.231 41.2312 394.934 44.24 395.46 47.1583C395.986 50.0766 397.314 52.7869 399.294 54.9801C400.553 56.3613 402.067 57.4818 403.751 58.2788C405.454 59.0882 407.316 59.5015 409.199 59.4884C411.548 59.5215 413.861 58.9096 415.89 57.718C417.806 56.5733 419.432 54.9963 420.642 53.1108L429.262 61.7755Z" fill="#333AFF"/>
<path d="M463 68.1751C461.659 69.0252 460.185 69.6421 458.641 70.0004C457.011 70.4024 455.339 70.6055 453.661 70.6051C451.158 70.6587 448.664 70.287 446.283 69.5056C444.406 68.8778 442.738 67.7357 441.467 66.2068C440.182 64.5225 439.288 62.5685 438.851 60.489C438.268 57.8139 437.994 55.0798 438.034 52.3411V30.4154H431.496V24.7856C435.348 23.2231 438.715 20.649 441.249 17.3304C443.94 13.5293 445.689 9.13282 446.349 4.50928H450.381V19.1447H462.913V30.4154H450.381V53.1988C450.346 54.2599 450.505 55.3185 450.849 56.3216C451.101 57.0685 451.531 57.7409 452.103 58.2788C452.604 58.7336 453.205 59.0615 453.857 59.2355C454.544 59.4113 455.251 59.4964 455.96 59.4884C457.15 59.4614 458.332 59.2878 459.48 58.9716C460.773 58.651 461.977 58.0381 463 57.1793V68.1751Z" fill="#333AFF"/>
<path d="M236.693 71.0012C232.417 71.0026 228.205 69.9566 224.418 67.9533C220.631 65.9499 217.383 63.0489 214.952 59.4995L214.691 59.1477L219.039 56.0798L223.005 52.0994L223.31 52.4182L223.888 53.2319C225.781 55.9936 228.501 58.0709 231.649 59.1591C234.797 60.2474 238.208 60.2894 241.382 59.2791C244.555 58.2687 247.324 56.2591 249.284 53.5449C251.243 50.8306 252.289 47.5545 252.268 44.1967C252.247 40.8389 251.161 37.5761 249.169 34.8866C247.176 32.1971 244.383 30.2224 241.197 29.2518C238.011 28.2813 234.601 28.3661 231.466 29.4937C228.332 30.6213 225.638 32.7324 223.779 35.5177L223.681 35.6606L215.181 47.5141L206.354 41.0705L214.8 29.283C217.371 25.4762 220.873 22.4044 224.967 20.3657C229.061 18.3269 233.608 17.3904 238.167 17.647C242.725 17.9035 247.14 19.3445 250.984 21.83C254.828 24.3155 257.971 27.7612 260.106 31.833C262.242 35.9047 263.298 40.4643 263.173 45.0693C263.048 49.6743 261.745 54.1686 259.392 58.1161C257.038 62.0635 253.713 65.3303 249.74 67.5995C245.767 69.8686 241.28 71.0631 236.714 71.0671L236.693 71.0012Z" fill="#333AFF"/>
<path d="M184.788 71.0011C180.617 71.0119 176.503 70.0289 172.78 68.1322C169.057 66.2354 165.83 63.4785 163.363 60.0858C160.895 56.6931 159.256 52.7604 158.58 48.6079C157.903 44.4553 158.207 40.2002 159.468 36.1889C160.729 32.1775 162.911 28.5232 165.836 25.5233C168.761 22.5235 172.347 20.2628 176.301 18.9254C180.255 17.588 184.467 17.2115 188.593 17.8267C192.719 18.4419 196.642 20.0313 200.044 22.4656L193.746 31.4382C191.203 29.6301 188.181 28.6314 185.071 28.5707C181.961 28.51 178.903 29.3901 176.293 31.0976C173.682 32.8051 171.638 35.2619 170.423 38.1518C169.209 41.0416 168.879 44.2322 169.477 47.3128C170.074 50.3934 171.572 53.2229 173.777 55.4372C175.982 57.6515 178.794 59.1491 181.85 59.7373C184.906 60.3255 188.066 59.9773 190.924 58.7376C193.782 57.4978 196.207 55.4233 197.887 52.7811L198.05 52.5392L206.332 41.0045L215.159 47.4481L206.953 58.8727C204.555 62.5998 201.27 65.6621 197.399 67.7804C193.527 69.8988 189.192 71.006 184.788 71.0011Z" fill="#333AFF"/>
</g>
<defs>
<clipPath id="clip0_124_5882">
<rect width="463" height="71" fill="white"/>
</clipPath>
</defs>
</svg>
